HIERARCHY
ROOT Hips
{
  OFFSET 5.84602e-005 68.8428 3.50346
  CHANNELS 6 Xposition Yposition Zposition Zrotation Xrotation Yrotation
  JOINT Spine
  {
    OFFSET 0 8.597 -4.6522
    CHANNELS 3 Zrotation Xrotation Yrotation
    JOINT Spine1
    {
      OFFSET 0 7.8454 0.4098
      CHANNELS 3 Zrotation Xrotation Yrotation
      JOINT Spine2
      {
        OFFSET 0 9.7078 -2.1609
        CHANNELS 3 Zrotation Xrotation Yrotation
        JOINT Neck
        {
          OFFSET 0 21.8761 -0.4549
          CHANNELS 3 Zrotation Xrotation Yrotation
          JOINT Head
          {
            OFFSET 0 12.3537 3.3602
            CHANNELS 3 Zrotation Xrotation Yrotation
            End Site
            {
              OFFSET 0.0001 18.9506 0.5657
            }
          }
        }
        JOINT LeftShoulder
        {
          OFFSET 2.2086 21.1115 7.2329
          CHANNELS 3 Zrotation Xrotation Yrotation
          JOINT LeftArm
          {
            OFFSET 13.1193 3.0282 -4.8998
            CHANNELS 3 Zrotation Xrotation Yrotation
            JOINT LeftForeArm
            {
              OFFSET 27.4081 -0.0973053 -0.2375
              CHANNELS 3 Zrotation Xrotation Yrotation
              JOINT LeftHand
              {
                OFFSET 22.8641 0.0662994 -0.1369
                CHANNELS 3 Zrotation Xrotation Yrotation
                JOINT LeftHandIndex1
                {
                  OFFSET 8.8614 0.775009 2.4612
                  CHANNELS 3 Zrotation Xrotation Yrotation
                  JOINT LeftHandIndex2
                  {
                    OFFSET 3.3146 -0.808304 0.5841
                    CHANNELS 3 Zrotation Xrotation Yrotation
                    JOINT LeftHandIndex3
                    {
                      OFFSET 2.2628 -0.552002 0.3989
                      CHANNELS 3 Zrotation Xrotation Yrotation
                      End Site
                      {
                        OFFSET 1.6102 -0.4807 0.2612
                      }
                    }
                  }
                }
                JOINT LeftHandMiddle1
                {
                  OFFSET 8.9937 0.895004 0.2143
                  CHANNELS 3 Zrotation Xrotation Yrotation
                  JOINT LeftHandMiddle2
                  {
                    OFFSET 4.0984 0.0113983 -0.0242
                    CHANNELS 3 Zrotation Xrotation Yrotation
                    JOINT LeftHandMiddle3
                    {
                      OFFSET 2.2716 0.00689697 -0.0138001
                      CHANNELS 3 Zrotation Xrotation Yrotation
                      End Site
                      {
                        OFFSET 2.0404 -0.1441 0.0027
                      }
                    }
                  }
                }
                JOINT LeftHandRing1
                {
                  OFFSET 8.5234 0.597198 -2.0164
                  CHANNELS 3 Zrotation Xrotation Yrotation
                  JOINT LeftHandRing2
                  {
                    OFFSET 3.7188 -0.188293 -0.2328
                    CHANNELS 3 Zrotation Xrotation Yrotation
                    JOINT LeftHandRing3
                    {
                      OFFSET 2.1191 -0.106598 -0.1332
                      CHANNELS 3 Zrotation Xrotation Yrotation
                      End Site
                      {
                        OFFSET 1.8737 -0.2304 -0.0886
                      }
                    }
                  }
                }
                JOINT LeftHandPinky1
                {
                  OFFSET 7.9094 -0.601089 -3.4825
                  CHANNELS 3 Zrotation Xrotation Yrotation
                  JOINT LeftHandPinky2
                  {
                    OFFSET 2.2874 -0.477005 -0.6314
                    CHANNELS 3 Zrotation Xrotation Yrotation
                    JOINT LeftHandPinky3
                    {
                      OFFSET 1.6774 -0.349396 -0.4633
                      CHANNELS 3 Zrotation Xrotation Yrotation
                      End Site
                      {
                        OFFSET 1.4888 -0.4091 -0.3416
                      }
                    }
                  }
                }
                JOINT LeftHandThumb1
                {
                  OFFSET 1.833 -1.3875 1.3896
                  CHANNELS 3 Zrotation Xrotation Yrotation
                  JOINT LeftHandThumb2
                  {
                    OFFSET 3.4129 -1.121 2.5732
                    CHANNELS 3 Zrotation Xrotation Yrotation
                    JOINT LeftHandThumb3
                    {
                      OFFSET 2.2474 -0.804199 1.6192
                      CHANNELS 3 Zrotation Xrotation Yrotation
                      End Site
                      {
                        OFFSET 1.6527 -0.5689 1.1317
                      }
                    }
                  }
                }
              }
            }
          }
        }
        JOINT RightShoulder
        {
          OFFSET -2.2086 21.1115 7.2329
          CHANNELS 3 Zrotation Xrotation Yrotation
          JOINT RightArm
          {
            OFFSET -13.1216 3.0287 -4.9007
            CHANNELS 3 Zrotation Xrotation Yrotation
            JOINT RightForeArm
            {
              OFFSET -27.4081 -0.0973053 -0.2375
              CHANNELS 3 Zrotation Xrotation Yrotation
              JOINT RightHand
              {
                OFFSET -22.8641 0.0664063 -0.1369
                CHANNELS 3 Zrotation Xrotation Yrotation
                JOINT RightHandIndex1
                {
                  OFFSET -8.8614 0.774994 2.4612
                  CHANNELS 3 Zrotation Xrotation Yrotation
                  JOINT RightHandIndex2
                  {
                    OFFSET -3.3146 -0.808304 0.5841
                    CHANNELS 3 Zrotation Xrotation Yrotation
                    JOINT RightHandIndex3
                    {
                      OFFSET -2.2628 -0.552002 0.3989
                      CHANNELS 3 Zrotation Xrotation Yrotation
                      End Site
                      {
                        OFFSET -1.6102 -0.4807 0.2612
                      }
                    }
                  }
                }
                JOINT RightHandMiddle1
                {
                  OFFSET -8.9937 0.894989 0.2143
                  CHANNELS 3 Zrotation Xrotation Yrotation
                  JOINT RightHandMiddle2
                  {
                    OFFSET -4.0984 0.0113983 -0.0242
                    CHANNELS 3 Zrotation Xrotation Yrotation
                    JOINT RightHandMiddle3
                    {
                      OFFSET -2.2716 0.00691223 -0.0138001
                      CHANNELS 3 Zrotation Xrotation Yrotation
                      End Site
                      {
                        OFFSET -2.0404 -0.1441 0.0027
                      }
                    }
                  }
                }
                JOINT RightHandRing1
                {
                  OFFSET -8.5234 0.597198 -2.0164
                  CHANNELS 3 Zrotation Xrotation Yrotation
                  JOINT RightHandRing2
                  {
                    OFFSET -3.7188 -0.188309 -0.2328
                    CHANNELS 3 Zrotation Xrotation Yrotation
                    JOINT RightHandRing3
                    {
                      OFFSET -2.1191 -0.106598 -0.1332
                      CHANNELS 3 Zrotation Xrotation Yrotation
                      End Site
                      {
                        OFFSET -1.8737 -0.2304 -0.0886
                      }
                    }
                  }
                }
                JOINT RightHandPinky1
                {
                  OFFSET -7.9094 -0.601105 -3.4825
                  CHANNELS 3 Zrotation Xrotation Yrotation
                  JOINT RightHandPinky2
                  {
                    OFFSET -2.2874 -0.477005 -0.6314
                    CHANNELS 3 Zrotation Xrotation Yrotation
                    JOINT RightHandPinky3
                    {
                      OFFSET -1.6774 -0.349396 -0.4633
                      CHANNELS 3 Zrotation Xrotation Yrotation
                      End Site
                      {
                        OFFSET -1.4888 -0.4091 -0.3416
                      }
                    }
                  }
                }
                JOINT RightHandThumb1
                {
                  OFFSET -1.833 -1.38751 1.3896
                  CHANNELS 3 Zrotation Xrotation Yrotation
                  JOINT RightHandThumb2
                  {
                    OFFSET -3.41299 -1.12099 2.5732
                    CHANNELS 3 Zrotation Xrotation Yrotation
                    JOINT RightHandThumb3
                    {
                      OFFSET -2.24741 -0.804108 1.6192
                      CHANNELS 3 Zrotation Xrotation Yrotation
                      End Site
                      {
                        OFFSET -1.6527 -0.5689 1.1317
                      }
                    }
                  }
                }
              }
            }
          }
        }
      }
    }
  }
  JOINT RightUpLeg
  {
    OFFSET -9.1966 3.8861 -0.7581
    CHANNELS 3 Zrotation Xrotation Yrotation
    JOINT RightLeg
    {
      OFFSET -0.7359 -41.0265 0
      CHANNELS 3 Zrotation Xrotation Yrotation
      JOINT RightFoot
      {
        OFFSET 0 -40.2855 0
        CHANNELS 3 Zrotation Xrotation Yrotation
        JOINT RightToeBase
        {
          OFFSET 0 -5.6122 11.7359
          CHANNELS 3 Zrotation Xrotation Yrotation
          End Site
          {
            OFFSET 0 0 7.8731
          }
        }
      }
    }
  }
  JOINT LeftUpLeg
  {
    OFFSET 9.1965 3.8864 -0.7581
    CHANNELS 3 Zrotation Xrotation Yrotation
    JOINT LeftLeg
    {
      OFFSET 0.7359 -41.0268 0
      CHANNELS 3 Zrotation Xrotation Yrotation
      JOINT LeftFoot
      {
        OFFSET 0 -40.2855 0
        CHANNELS 3 Zrotation Xrotation Yrotation
        JOINT LeftToeBase
        {
          OFFSET 0 -5.6122 11.7359
          CHANNELS 3 Zrotation Xrotation Yrotation
          End Site
          {
            OFFSET 0 0 7.8731
          }
        }
      }
    }
  }
}
MOTION
Frames:	5
Frame Time:	0.0333333
5.84602e-005 68.8428 3.50346 0 0 -0 0 0 -0 0 0 -0 0 0 -0 0 0 -0 0 0 -0 0 0 -0 0 0 -0 0 0 -0 0 0 -0 0 0 -0 0 0 -0 0 0 -0 0 0 -0 -0.0146107 -8.87603e-005 -2.63497e-007 2.99804e-018 -2.42657e-020 -1.42182e-022 0 0 -0 -0.0187562 -0.001176 5.858e-005 5.06224e-018 3.88251e-019 1.21329e-020 0 0 -0 -0.012269 -0.00324817 0.000675346 -1.74678e-018 3.88251e-019 -0 0 0 -0 0 0 -0 0 0 -0 0 0 -0 0 0 -0 0 0 -0 0 0 -0 0 0 -0 0 0 -0 0 0 -0 0 0 -0 0.0149955 -9.10982e-005 2.64101e-007 -9.69331e-018 1.21329e-020 -4.7394e-023 0 0 -0 0.0189956 -0.00119102 -5.96516e-005 -5.41541e-019 0 2.42657e-020 0 0 -0 0.0122698 -0.00324857 -0.000673756 -2.00796e-019 0 -1.94126e-019 0 0 -0 0 0 -0 0 0 -0 3.39842 1.33031 -0.0637918 -5.65207e-008 0.834868 -0.000436188 -3.39935 -2.16518 -0.0642563 -8.89002e-024 -1.18485e-023 -1.48106e-024 -3.39844 1.35642 0.0640283 -3.18788e-007 0.782166 -0.000588827 3.39931 -2.13858 0.0634662 1.1399e-023 0 -0 
-0.800554 24.3919 -32.7003 -0.0107334 53.3309 0.0161053 -0.0893684 5.67492 -0.0656614 -0.17345 11.35 -0.123291 -0.17345 11.35 -0.123291 -7.37278e-007 -31.2748 1.13717e-007 3.1179e-007 2.37948 8.96395e-008 -0.651391 -13.3069 15.5292 2.15536 -3.08291 -48.5304 11.5146 -11.8084 -30.291 41.5237 -2.31954 7.99156 -1.39499e-006 -9.41369e-007 -2.54147e-007 -2.09248e-006 -1.41205e-006 -3.81221e-007 6.97493e-007 4.70685e-007 1.27074e-007 -1.39499e-006 -9.41369e-007 -2.54147e-007 -0.0146279 -8.99773e-005 -4.76837e-006 6.97502e-007 4.70669e-007 1.27133e-007 -1.39499e-006 -9.41369e-007 -2.54147e-007 -0.0187109 -0.00117438 6.96628e-005 3.71066e-007 -2.47833e-007 2.06739e-006 -1.39499e-006 -9.41369e-007 -2.54147e-007 -0.0122348 -0.00323804 0.000672048 6.97507e-007 4.70669e-007 1.27104e-007 -1.39499e-006 -9.41369e-007 -2.54147e-007 -2.09248e-006 -1.41205e-006 -3.81221e-007 6.97493e-007 4.70685e-007 1.27074e-007 0.363325 -13.6994 -14.3399 -0.999264 -1.10515 47.2039 -13.9254 -14.0866 35.6534 -40.164 2.7441 -10.8742 6.36111e-015 -3.57812e-015 -1.59028e-014 8.59318e-007 -6.46447e-007 -1.62908e-006 0 0 -0 6.36111e-015 -3.57812e-015 -1.59028e-014 0.0150237 -9.00081e-005 3.17735e-006 4.41391e-031 -3.97569e-015 6.36111e-015 6.36111e-015 -3.57812e-015 -1.59028e-014 0.0189926 -0.00118893 -5.34962e-005 -3.18055e-015 -9.93923e-015 -3.18055e-015 6.36111e-015 -3.57812e-015 -1.59028e-014 0.0122994 -0.00325768 -0.000680352 3.18055e-015 3.97569e-016 3.18055e-015 6.36111e-015 -3.57812e-015 -1.59028e-014 8.59318e-007 -6.46447e-007 -1.62908e-006 0 0 -0 -26.5004 -21.7562 -42.8069 -25.4483 50.3303 -9.24046 -13.8939 31.8016 19.3068 5.94939e-006 -5.05304e-006 -1.93118e-006 26.4963 -21.7556 42.7877 25.4269 50.3327 9.2518 13.8751 31.8131 -19.2854 -3.41337e-006 1.4312e-006 3.20371e-007 
-1.16152 6.36497 -48.5542 -0.0588664 77.3298 0.0635825 -0.106884 8.20028 -0.119235 -0.199435 16.4008 -0.226365 -0.199435 16.4007 -0.226365 8.90301e-007 -44.548 5.68765e-007 1.17254e-007 2.66904 -1.4789e-007 1.42232 -18.4276 23.2152 1.82657 -2.27544 -70.3594 12.8574 -14.3217 -44.6308 60.4198 -3.3271 11.598 0 4.37326e-015 -0 -1.10348e-031 1.98785e-015 3.18055e-015 -6.62086e-032 7.95139e-016 4.77083e-015 0 4.37326e-015 -0 -0.0145904 -8.74367e-005 -5.5944e-006 -8.82781e-032 1.59028e-015 3.18055e-015 0 4.37326e-015 -0 -0.0187578 -0.00117557 5.92478e-005 -3.18055e-015 -6.75868e-015 1.59028e-015 0 4.37326e-015 -0 -0.0122165 -0.00323426 0.000679286 -6.36111e-015 -3.97569e-016 -1.59028e-015 0 4.37326e-015 -0 -1.10348e-031 1.98785e-015 3.18055e-015 -6.62086e-032 7.95139e-016 4.77083e-015 -1.73651 -19.0869 -21.4639 -0.985979 -0.866842 68.4455 -15.0117 -15.7199 52.6424 -57.9004 3.89927 -15.7868 -0 -3.57812e-015 -0 3.18055e-015 -3.18055e-015 -0 -3.18055e-015 -3.97569e-015 -0 -0 -3.57812e-015 -0 0.0150118 -9.02072e-005 7.02669e-006 3.18055e-015 8.34896e-015 -1.59028e-015 -0 -3.57812e-015 -0 0.0190164 -0.00119077 -6.28161e-005 3.18055e-015 -1.59028e-015 -1.59028e-015 -0 -3.57812e-015 -0 0.0122681 -0.00324852 -0.000681512 6.36111e-015 2.78299e-015 4.77083e-015 -0 -3.57812e-015 -0 3.18055e-015 -3.18055e-015 -0 -3.18055e-015 -3.97569e-015 -0 -48.8065 -22.4804 -64.3735 -21.8985 67.7655 -25.5931 -31.5593 44.8605 35.9259 -2.25098e-006 2.45458e-006 -2.18429e-006 48.7986 -22.4879 64.3468 21.8548 67.7658 25.6205 31.5289 44.8845 -35.8967 9.11643e-006 2.85788e-006 -9.86153e-006 
-1.08128 10.3781 -45.1628 -0.0370044 71.9967 0.0420106 -0.104619 7.57618 -0.106424 -0.197522 15.1525 -0.201429 -0.197523 15.1525 -0.201429 -1.30451e-007 -39.8181 6.29651e-007 1.68891e-007 0.867377 7.26091e-008 0.707102 -17.1949 21.5858 1.9001 -2.60974 -65.5197 12.7098 -13.986 -41.4219 56.2096 -3.10621 10.7957 -1.29941e-006 -1.08222e-006 -1.72083e-007 7.583e-007 1.73192e-006 2.53401e-007 -1.29941e-006 -1.08222e-006 -1.72083e-007 -1.29941e-006 -1.08222e-006 -1.72083e-007 -0.0145908 -8.68443e-005 -1.81917e-006 -1.29939e-006 -1.08219e-006 -1.7222e-007 -1.29941e-006 -1.08222e-006 -1.72083e-007 -0.0187258 -0.00117217 5.9255e-005 -1.29938e-006 -1.08219e-006 -1.72246e-007 -1.29941e-006 -1.08222e-006 -1.72083e-007 -0.0123059 -0.00325606 0.000663669 -1.2994e-006 -1.08219e-006 -1.72163e-007 -1.29941e-006 -1.08222e-006 -1.72083e-007 7.583e-007 1.73192e-006 2.53401e-007 -1.29941e-006 -1.08222e-006 -1.72083e-007 -1.02025 -17.7675 -19.9075 -0.991292 -0.97234 63.7264 -14.9301 -15.7203 48.8739 -53.9766 3.64915 -14.6936 -1.29199e-006 1.09107e-006 -1.85534e-007 1.29199e-006 -1.09107e-006 1.85535e-007 -1.29199e-006 1.09107e-006 -1.85534e-007 -1.29199e-006 1.09107e-006 -1.85534e-007 0.0149822 -9.06623e-005 5.46916e-006 -1.29197e-006 1.09104e-006 -1.85676e-007 -1.29199e-006 1.09107e-006 -1.85534e-007 0.0190114 -0.00119215 -6.01253e-005 -1.29196e-006 1.09103e-006 -1.85702e-007 -1.29199e-006 1.09107e-006 -1.85534e-007 0.0122563 -0.00324487 -0.000675573 -1.47559e-006 9.41664e-007 -3.80044e-006 -1.29199e-006 1.09107e-006 -1.85534e-007 1.29199e-006 -1.09107e-006 1.85535e-007 -1.29199e-006 1.09107e-006 -1.85534e-007 -43.7784 -23.1855 -59.766 -24.6738 64.197 -20.0239 -26.6488 42.3745 31.4953 -1.84685e-006 -3.40139e-008 -5.85453e-006 43.7705 -23.1908 59.7405 24.6369 64.1983 20.0462 26.6202 42.395 -31.467 8.30505e-006 -5.09654e-007 1.45552e-006 
-1.08128 10.4618 -45.2143 -0.0370044 71.9967 0.0420106 -0.104615 7.52458 -0.106614 -0.197555 15.0493 -0.201879 -0.197555 15.0493 -0.201878 -1.70306e-006 -38.3544 -1.69213e-006 1.09244e-007 -0.560641 1.6959e-007 0.605302 -17.0621 21.69 1.90011 -2.60974 -65.5197 12.7098 -13.986 -41.4219 56.2096 -3.1062 10.7958 -5.29669e-031 6.36111e-015 4.77083e-015 -1.65521e-031 5.96354e-015 1.59028e-015 -6.36111e-015 6.36111e-015 1.59028e-015 -5.29669e-031 6.36111e-015 4.77083e-015 -0.0146042 -8.92578e-005 -1.99072e-006 1.54487e-031 -2.78299e-015 3.18055e-015 -5.29669e-031 6.36111e-015 4.77083e-015 -0.018774 -0.00117598 5.59821e-005 3.18055e-015 3.97569e-016 3.18055e-015 -5.29669e-031 6.36111e-015 4.77083e-015 -0.0122953 -0.00325226 0.000664533 4.12465e-007 5.15239e-007 -3.43471e-006 -5.29669e-031 6.36111e-015 4.77083e-015 -1.65521e-031 5.96354e-015 1.59028e-015 -6.36111e-015 6.36111e-015 1.59028e-015 -0.919323 -17.619 -19.97 -0.991286 -0.972328 63.7264 -14.9301 -15.7203 48.8739 -53.9766 3.64916 -14.6936 3.31043e-032 1.19271e-015 -1.59028e-015 3.18055e-015 1.98785e-015 -0 3.18055e-015 1.59028e-015 -0 3.31043e-032 1.19271e-015 -1.59028e-015 0.0149828 -8.92335e-005 9.49268e-006 -0 -4.77083e-015 -0 3.31043e-032 1.19271e-015 -1.59028e-015 0.0189785 -0.00119092 -6.39386e-005 -6.36111e-015 -3.57812e-015 -1.59028e-015 3.31043e-032 1.19271e-015 -1.59028e-015 0.0122776 -0.00325137 -0.00067845 2.24184e-007 2.23097e-008 -6.09799e-006 3.31043e-032 1.19271e-015 -1.59028e-015 3.18055e-015 1.98785e-015 -0 3.18055e-015 1.59028e-015 -0 -43.8481 -23.3854 -59.8506 -24.6845 64.2061 -20.0132 -26.642 42.3713 31.4913 -7.42574e-007 4.2402e-006 4.77929e-006 43.8397 -23.3906 59.825 24.6474 64.2072 20.0356 26.6135 42.392 -31.463 -1.42366e-006 -1.72557e-007 1.65188e-006 
